#usda 1.0
(
    defaultPrim = "RobotiqLogo"
    metersPerUnit = 1
    upAxis = "Z"
)

def Xform "RobotiqLogo"
{
    def Material "Blue"
    {
        token outputs:surface.connect = </RobotiqLogo/Blue/Shader.outputs:surface>

        def Shader "Shader"
        {
            uniform token info:id = "UsdPreviewSurface"
            color3f inputs:diffuseColor = (0.008, 0.24, 0.58)
            float inputs:clearcoat = 0.6
            float inputs:clearcoatRoughness = 0.08
            float inputs:roughness = 0.25
            token outputs:surface
        }
    }

    def Xform "Top" (
        prepend apiSchemas = ["PhysicsRigidBodyAPI", "PhysicsMassAPI"]
    )
    {
        float physics:density = 500
        quatf xformOp:orient = (0.70709556, 0.0039821425, -0.70709556, -0.003982143)
        double3 xformOp:translate = (0.01795158592063391, 0.01403699158333814, 0.15363340940167583)
        uniform token[] xformOpOrder = ["xformOp:translate", "xformOp:orient"]

        def Mesh "mesh" (
            prepend apiSchemas = ["MaterialBindingAPI", "PhysicsCollisionAPI", "PhysicsMeshCollisionAPI"]
        )
        {
            float3[] extent = [(-0.0326566, -0.052584805, 0), (0.0396434, 0.049859196, 0.0375)]
            int[] faceVertexCounts = [60, 60, 4, 4, 4, 4, 4, 4, 4, 4, 4, 4, 4, 4, 4, 4, 4, 4, 4, 4, 4, 4, 4, 4, 4, 4, 4, 4, 4, 4, 4, 4, 4, 4, 4, 4, 4, 4, 4, 4, 4, 4, 4, 4, 4, 4, 4, 4, 4, 4, 4, 4, 4, 4, 4, 4, 4, 4, 4, 4, 4, 4]
            int[] faceVertexIndices = [59, 58, 57, 56, 55, 54, 53, 52, 51, 50, 49, 48, 47, 46, 45, 44, 43, 42, 41, 40, 39, 38, 37, 36, 35, 34, 33, 32, 31, 30, 29, 28, 27, 26, 25, 24, 23, 22, 21, 20, 19, 18, 17, 16, 15, 14, 13, 12, 11, 10, 9, 8, 7, 6, 5, 4, 3, 2, 1, 0, 60, 61, 62, 63, 64, 65, 66, 67, 68, 69, 70, 71, 72, 73, 74, 75, 76, 77, 78, 79, 80, 81, 82, 83, 84, 85, 86, 87, 88, 89, 90, 91, 92, 93, 94, 95, 96, 97, 98, 99, 100, 101, 102, 103, 104, 105, 106, 107, 108, 109, 110, 111, 112, 113, 114, 115, 116, 117, 118, 119, 0, 1, 61, 60, 1, 2, 62, 61, 2, 3, 63, 62, 3, 4, 64, 63, 4, 5, 65, 64, 5, 6, 66, 65, 6, 7, 67, 66, 7, 8, 68, 67, 8, 9, 69, 68, 9, 10, 70, 69, 10, 11, 71, 70, 11, 12, 72, 71, 12, 13, 73, 72, 13, 14, 74, 73, 14, 15, 75, 74, 15, 16, 76, 75, 16, 17, 77, 76, 17, 18, 78, 77, 18, 19, 79, 78, 19, 20, 80, 79, 20, 21, 81, 80, 21, 22, 82, 81, 22, 23, 83, 82, 23, 24, 84, 83, 24, 25, 85, 84, 25, 26, 86, 85, 26, 27, 87, 86, 27, 28, 88, 87, 28, 29, 89, 88, 29, 30, 90, 89, 30, 31, 91, 90, 31, 32, 92, 91, 32, 33, 93, 92, 33, 34, 94, 93, 34, 35, 95, 94, 35, 36, 96, 95, 36, 37, 97, 96, 37, 38, 98, 97, 38, 39, 99, 98, 39, 40, 100, 99, 40, 41, 101, 100, 41, 42, 102, 101, 42, 43, 103, 102, 43, 44, 104, 103, 44, 45, 105, 104, 45, 46, 106, 105, 46, 47, 107, 106, 47, 48, 108, 107, 48, 49, 109, 108, 49, 50, 110, 109, 50, 51, 111, 110, 51, 52, 112, 111, 52, 53, 113, 112, 53, 54, 114, 113, 54, 55, 115, 114, 55, 56, 116, 115, 56, 57, 117, 116, 57, 58, 118, 117, 58, 59, 119, 118, 59, 0, 60, 119]
            rel material:binding = </RobotiqLogo/Blue>
            uniform token physics:approximation = "convexHull"
            point3f[] points = [(0.034243397, 0.038915202, 0), (0.0316874, 0.0398152, 0), (0.0240434, 0.041459203, 0), (0.0208874, 0.0417592, 0), (0.012187401, 0.0437152, 0), (0.0022874, 0.0453592, 0), (0.0006434, 0.045959197, 0), (-0.0052126003, 0.0467152, 0), (-0.0139125995, 0.048659198, 0), (-0.0172126, 0.0489592, 0), (-0.0211126, 0.049859196, 0), (-0.0239566, 0.049859196, 0), (-0.026656602, 0.049115196, 0), (-0.0284566, 0.047915198, 0), (-0.0307126, 0.045515202, 0), (-0.0320566, 0.042215202, 0), (-0.0326566, 0.0383152, 0), (-0.0326566, 0.0350152, 0), (-0.0320566, 0.030515201, 0), (-0.0298126, 0.0192592, 0), (-0.029356599, 0.0149152, 0), (-0.0277126, 0.0075592, 0), (-0.027112601, 0.0020152, 0), (-0.025312599, -0.0062408, 0), (-0.0248566, -0.0107408, 0), (-0.0244126, -0.011940801, 0), (-0.023812601, -0.0161408, 0), (-0.0227566, -0.0206408, 0), (-0.0223126, -0.024540799, 0), (-0.0203566, -0.0341408, 0), (-0.0197566, -0.0390848, 0), (-0.019312602, -0.0402848, 0), (-0.0178126, -0.0485408, 0), (-0.0170566, -0.049884804, 0), (-0.0157126, -0.051240798, 0), (-0.0130126, -0.0522848, 0), (-0.0091126, -0.052584805, 0), (-0.0043126, -0.051684797, 0), (-0.0014565999, -0.0507848, 0), (0.0006434, -0.0504848, 0), (0.0022874, -0.0497408, 0), (0.0061874, -0.049140804, 0), (0.0115874, -0.0474848, 0), (0.0198434, -0.0456848, 0), (0.022687402, -0.0441848, 0), (0.024643399, -0.0422408, 0), (0.025987402, -0.0402848, 0), (0.0274874, -0.0366848, 0), (0.028687399, -0.0315848, 0), (0.0303434, -0.0213848, 0), (0.0321434, -0.0137408, 0), (0.0325874, -0.0090848, 0), (0.0345434, -0.0002408, 0), (0.0355874, 0.0069592, 0), (0.0372434, 0.0149152, 0), (0.0373874, 0.017159201, 0), (0.0396434, 0.027959198, 0), (0.0396434, 0.032315202, 0), (0.0391874, 0.0338152, 0), (0.0376874, 0.0362152, 0), (0.034243397, 0.038915202, 0.0375), (0.0316874, 0.0398152, 0.0375), (0.0240434, 0.041459203, 0.0375), (0.0208874, 0.0417592, 0.0375), (0.012187401, 0.0437152, 0.0375), (0.0022874, 0.0453592, 0.0375), (0.0006434, 0.045959197, 0.0375), (-0.0052126003, 0.0467152, 0.0375), (-0.0139125995, 0.048659198, 0.0375), (-0.0172126, 0.0489592, 0.0375), (-0.0211126, 0.049859196, 0.0375), (-0.0239566, 0.049859196, 0.0375), (-0.026656602, 0.049115196, 0.0375), (-0.0284566, 0.047915198, 0.0375), (-0.0307126, 0.045515202, 0.0375), (-0.0320566, 0.042215202, 0.0375), (-0.0326566, 0.0383152, 0.0375), (-0.0326566, 0.0350152, 0.0375), (-0.0320566, 0.030515201, 0.0375), (-0.0298126, 0.0192592, 0.0375), (-0.029356599, 0.0149152, 0.0375), (-0.0277126, 0.0075592, 0.0375), (-0.027112601, 0.0020152, 0.0375), (-0.025312599, -0.0062408, 0.0375), (-0.0248566, -0.0107408, 0.0375), (-0.0244126, -0.011940801, 0.0375), (-0.023812601, -0.0161408, 0.0375), (-0.0227566, -0.0206408, 0.0375), (-0.0223126, -0.024540799, 0.0375), (-0.0203566, -0.0341408, 0.0375), (-0.0197566, -0.0390848, 0.0375), (-0.019312602, -0.0402848, 0.0375), (-0.0178126, -0.0485408, 0.0375), (-0.0170566, -0.049884804, 0.0375), (-0.0157126, -0.051240798, 0.0375), (-0.0130126, -0.0522848, 0.0375), (-0.0091126, -0.052584805, 0.0375), (-0.0043126, -0.051684797, 0.0375), (-0.0014565999, -0.0507848, 0.0375), (0.0006434, -0.0504848, 0.0375), (0.0022874, -0.0497408, 0.0375), (0.0061874, -0.049140804, 0.0375), (0.0115874, -0.0474848, 0.0375), (0.0198434, -0.0456848, 0.0375), (0.022687402, -0.0441848, 0.0375), (0.024643399, -0.0422408, 0.0375), (0.025987402, -0.0402848, 0.0375), (0.0274874, -0.0366848, 0.0375), (0.028687399, -0.0315848, 0.0375), (0.0303434, -0.0213848, 0.0375), (0.0321434, -0.0137408, 0.0375), (0.0325874, -0.0090848, 0.0375), (0.0345434, -0.0002408, 0.0375), (0.0355874, 0.0069592, 0.0375), (0.0372434, 0.0149152, 0.0375), (0.0373874, 0.017159201, 0.0375), (0.0396434, 0.027959198, 0.0375), (0.0396434, 0.032315202, 0.0375), (0.0391874, 0.0338152, 0.0375), (0.0376874, 0.0362152, 0.0375)]
            uniform token subdivisionScheme = "none"
        }
    }

    def Xform "Middle" (
        prepend apiSchemas = ["PhysicsRigidBodyAPI", "PhysicsMassAPI"]
    )
    {
        float physics:density = 500
        quatf xformOp:orient = (-0.70710504, 0.0015529284, 0.7071051, -0.0015529309)
        double3 xformOp:translate = (0.0197685166564706, -0.013733901092092488, 0.09661446693335375)
        uniform token[] xformOpOrder = ["xformOp:translate", "xformOp:orient"]

        def Mesh "mesh" (
            prepend apiSchemas = ["MaterialBindingAPI", "PhysicsCollisionAPI", "PhysicsMeshCollisionAPI"]
        )
        {
            float3[] extent = [(-0.033388883, -0.050330848, 0), (0.038455117, 0.054069154, 0.0375)]
            int[] faceVertexCounts = [59, 59, 4, 4, 4, 4, 4, 4, 4, 4, 4, 4, 4, 4, 4, 4, 4, 4, 4, 4, 4, 4, 4, 4, 4, 4, 4, 4, 4, 4, 4, 4, 4, 4, 4, 4, 4, 4, 4, 4, 4, 4, 4, 4, 4, 4, 4, 4, 4, 4, 4, 4, 4, 4, 4, 4, 4, 4, 4, 4, 4]
            int[] faceVertexIndices = [58, 57, 56, 55, 54, 53, 52, 51, 50, 49, 48, 47, 46, 45, 44, 43, 42, 41, 40, 39, 38, 37, 36, 35, 34, 33, 32, 31, 30, 29, 28, 27, 26, 25, 24, 23, 22, 21, 20, 19, 18, 17, 16, 15, 14, 13, 12, 11, 10, 9, 8, 7, 6, 5, 4, 3, 2, 1, 0, 59, 60, 61, 62, 63, 64, 65, 66, 67, 68, 69, 70, 71, 72, 73, 74, 75, 76, 77, 78, 79, 80, 81, 82, 83, 84, 85, 86, 87, 88, 89, 90, 91, 92, 93, 94, 95, 96, 97, 98, 99, 100, 101, 102, 103, 104, 105, 106, 107, 108, 109, 110, 111, 112, 113, 114, 115, 116, 117, 0, 1, 60, 59, 1, 2, 61, 60, 2, 3, 62, 61, 3, 4, 63, 62, 4, 5, 64, 63, 5, 6, 65, 64, 6, 7, 66, 65, 7, 8, 67, 66, 8, 9, 68, 67, 9, 10, 69, 68, 10, 11, 70, 69, 11, 12, 71, 70, 12, 13, 72, 71, 13, 14, 73, 72, 14, 15, 74, 73, 15, 16, 75, 74, 16, 17, 76, 75, 17, 18, 77, 76, 18, 19, 78, 77, 19, 20, 79, 78, 20, 21, 80, 79, 21, 22, 81, 80, 22, 23, 82, 81, 23, 24, 83, 82, 24, 25, 84, 83, 25, 26, 85, 84, 26, 27, 86, 85, 27, 28, 87, 86, 28, 29, 88, 87, 29, 30, 89, 88, 30, 31, 90, 89, 31, 32, 91, 90, 32, 33, 92, 91, 33, 34, 93, 92, 34, 35, 94, 93, 35, 36, 95, 94, 36, 37, 96, 95, 37, 38, 97, 96, 38, 39, 98, 97, 39, 40, 99, 98, 40, 41, 100, 99, 41, 42, 101, 100, 42, 43, 102, 101, 43, 44, 103, 102, 44, 45, 104, 103, 45, 46, 105, 104, 46, 47, 106, 105, 47, 48, 107, 106, 48, 49, 108, 107, 49, 50, 109, 108, 50, 51, 110, 109, 51, 52, 111, 110, 52, 53, 112, 111, 53, 54, 113, 112, 54, 55, 114, 113, 55, 56, 115, 114, 56, 57, 116, 115, 57, 58, 117, 116, 58, 0, 59, 117]
            rel material:binding = </RobotiqLogo/Blue>
            uniform token physics:approximation = "convexHull"
            point3f[] points = [(0.03485512, -0.03653085, 0), (0.03665512, -0.03488685, 0), (0.03801112, -0.032186847, 0), (0.038455117, -0.030086847, 0), (0.038455117, -0.027386848, 0), (0.03695512, -0.018230848, 0), (0.035311118, -0.010286847, 0), (0.03471112, -0.0050308476, 0), (0.03305512, 0.0024691527, 0), (0.032455117, 0.0074131526, 0), (0.030355118, 0.017913152, 0), (0.030055119, 0.021069152, 0), (0.027955119, 0.031413153, 0), (0.02751112, 0.035169154, 0), (0.026311118, 0.04026915, 0), (0.024511117, 0.04416915, 0), (0.022255119, 0.046569154, 0), (0.019711118, 0.047913156, 0), (0.015055119, 0.04926915, 0), (0.012211118, 0.049569152, 0), (0.0026111186, 0.05166915, 0), (-0.0023448814, 0.052269153, 0), (-0.0111888815, 0.054069154, 0), (-0.014644881, 0.05391315, 0), (-0.016888881, 0.05316915, 0), (-0.018244881, 0.052113153, 0), (-0.019888882, 0.05001315, 0), (-0.020488882, 0.048813153, 0), (-0.021088881, 0.046113152, 0), (-0.02124488, 0.04431315, 0), (-0.022288881, 0.039813153, 0), (-0.022744881, 0.034713153, 0), (-0.024844881, 0.023613151, 0), (-0.024988882, 0.021213152, 0), (-0.026488882, 0.012069153, 0), (-0.026944883, 0.010569152, 0), (-0.02738888, 0.0054691527, 0), (-0.028444882, 0.0008131525, 0), (-0.030244883, -0.012986848, 0), (-0.03188888, -0.022286847, 0), (-0.03218888, -0.026486848, 0), (-0.03324488, -0.03248685, 0), (-0.033388883, -0.036686845, 0), (-0.032644883, -0.040586848, 0), (-0.03068888, -0.04553085, 0), (-0.02738888, -0.048686847, 0), (-0.02528888, -0.04973085, 0), (-0.022444881, -0.050330848, 0), (-0.01854488, -0.05003085, 0), (-0.014488881, -0.048830852, 0), (-0.011344882, -0.04838685, 0), (-0.0045888815, -0.04643085, 0), (-0.0015888815, -0.045986846, 0), (0.0047111185, -0.04418685, 0), (0.007711118, -0.043730848, 0), (0.015511118, -0.04163085, 0), (0.01761112, -0.041330848, 0), (0.025111116, -0.039230846, 0), (0.03201112, -0.037730847, 0), (0.03485512, -0.03653085, 0.0375), (0.03665512, -0.03488685, 0.0375), (0.03801112, -0.032186847, 0.0375), (0.038455117, -0.030086847, 0.0375), (0.038455117, -0.027386848, 0.0375), (0.03695512, -0.018230848, 0.0375), (0.035311118, -0.010286847, 0.0375), (0.03471112, -0.0050308476, 0.0375), (0.03305512, 0.0024691527, 0.0375), (0.032455117, 0.0074131526, 0.0375), (0.030355118, 0.017913152, 0.0375), (0.030055119, 0.021069152, 0.0375), (0.027955119, 0.031413153, 0.0375), (0.02751112, 0.035169154, 0.0375), (0.026311118, 0.04026915, 0.0375), (0.024511117, 0.04416915, 0.0375), (0.022255119, 0.046569154, 0.0375), (0.019711118, 0.047913156, 0.0375), (0.015055119, 0.04926915, 0.0375), (0.012211118, 0.049569152, 0.0375), (0.0026111186, 0.05166915, 0.0375), (-0.0023448814, 0.052269153, 0.0375), (-0.0111888815, 0.054069154, 0.0375), (-0.014644881, 0.05391315, 0.0375), (-0.016888881, 0.05316915, 0.0375), (-0.018244881, 0.052113153, 0.0375), (-0.019888882, 0.05001315, 0.0375), (-0.020488882, 0.048813153, 0.0375), (-0.021088881, 0.046113152, 0.0375), (-0.02124488, 0.04431315, 0.0375), (-0.022288881, 0.039813153, 0.0375), (-0.022744881, 0.034713153, 0.0375), (-0.024844881, 0.023613151, 0.0375), (-0.024988882, 0.021213152, 0.0375), (-0.026488882, 0.012069153, 0.0375), (-0.026944883, 0.010569152, 0.0375), (-0.02738888, 0.0054691527, 0.0375), (-0.028444882, 0.0008131525, 0.0375), (-0.030244883, -0.012986848, 0.0375), (-0.03188888, -0.022286847, 0.0375), (-0.03218888, -0.026486848, 0.0375), (-0.03324488, -0.03248685, 0.0375), (-0.033388883, -0.036686845, 0.0375), (-0.032644883, -0.040586848, 0.0375), (-0.03068888, -0.04553085, 0.0375), (-0.02738888, -0.048686847, 0.0375), (-0.02528888, -0.04973085, 0.0375), (-0.022444881, -0.050330848, 0.0375), (-0.01854488, -0.05003085, 0.0375), (-0.014488881, -0.048830852, 0.0375), (-0.011344882, -0.04838685, 0.0375), (-0.0045888815, -0.04643085, 0.0375), (-0.0015888815, -0.045986846, 0.0375), (0.0047111185, -0.04418685, 0.0375), (0.007711118, -0.043730848, 0.0375), (0.015511118, -0.04163085, 0.0375), (0.01761112, -0.041330848, 0.0375), (0.025111116, -0.039230846, 0.0375), (0.03201112, -0.037730847, 0.0375)]
            uniform token subdivisionScheme = "none"
        }
    }

    def Xform "Bottom" (
        prepend apiSchemas = ["PhysicsRigidBodyAPI", "PhysicsMassAPI"]
    )
    {
        float physics:density = 500
        quatf xformOp:orient = (0.7071026, -0.0024291691, -0.7071026, 0.0024291673)
        double3 xformOp:translate = (0.017731484199337247, 0.004118407578437282, 0.03298054270481003)
        uniform token[] xformOpOrder = ["xformOp:translate", "xformOp:orient"]

        def Mesh "mesh" (
            prepend apiSchemas = ["MaterialBindingAPI", "PhysicsCollisionAPI", "PhysicsMeshCollisionAPI"]
        )
        {
            float3[] extent = [(-0.032763857, -0.056705788, 0), (0.039536145, 0.046494212, 0.0375)]
            int[] faceVertexCounts = [56, 56, 4, 4, 4, 4, 4, 4, 4, 4, 4, 4, 4, 4, 4, 4, 4, 4, 4, 4, 4, 4, 4, 4, 4, 4, 4, 4, 4, 4, 4, 4, 4, 4, 4, 4, 4, 4, 4, 4, 4, 4, 4, 4, 4, 4, 4, 4, 4, 4, 4, 4, 4, 4, 4, 4, 4, 4]
            int[] faceVertexIndices = [55, 54, 53, 52, 51, 50, 49, 48, 47, 46, 45, 44, 43, 42, 41, 40, 39, 38, 37, 36, 35, 34, 33, 32, 31, 30, 29, 28, 27, 26, 25, 24, 23, 22, 21, 20, 19, 18, 17, 16, 15, 14, 13, 12, 11, 10, 9, 8, 7, 6, 5, 4, 3, 2, 1, 0, 56, 57, 58, 59, 60, 61, 62, 63, 64, 65, 66, 67, 68, 69, 70, 71, 72, 73, 74, 75, 76, 77, 78, 79, 80, 81, 82, 83, 84, 85, 86, 87, 88, 89, 90, 91, 92, 93, 94, 95, 96, 97, 98, 99, 100, 101, 102, 103, 104, 105, 106, 107, 108, 109, 110, 111, 0, 1, 57, 56, 1, 2, 58, 57, 2, 3, 59, 58, 3, 4, 60, 59, 4, 5, 61, 60, 5, 6, 62, 61, 6, 7, 63, 62, 7, 8, 64, 63, 8, 9, 65, 64, 9, 10, 66, 65, 10, 11, 67, 66, 11, 12, 68, 67, 12, 13, 69, 68, 13, 14, 70, 69, 14, 15, 71, 70, 15, 16, 72, 71, 16, 17, 73, 72, 17, 18, 74, 73, 18, 19, 75, 74, 19, 20, 76, 75, 20, 21, 77, 76, 21, 22, 78, 77, 22, 23, 79, 78, 23, 24, 80, 79, 24, 25, 81, 80, 25, 26, 82, 81, 26, 27, 83, 82, 27, 28, 84, 83, 28, 29, 85, 84, 29, 30, 86, 85, 30, 31, 87, 86, 31, 32, 88, 87, 32, 33, 89, 88, 33, 34, 90, 89, 34, 35, 91, 90, 35, 36, 92, 91, 36, 37, 93, 92, 37, 38, 94, 93, 38, 39, 95, 94, 39, 40, 96, 95, 40, 41, 97, 96, 41, 42, 98, 97, 42, 43, 99, 98, 43, 44, 100, 99, 44, 45, 101, 100, 45, 46, 102, 101, 46, 47, 103, 102, 47, 48, 104, 103, 48, 49, 105, 104, 49, 50, 106, 105, 50, 51, 107, 106, 51, 52, 108, 107, 52, 53, 109, 108, 53, 54, 110, 109, 54, 55, 111, 110, 55, 0, 56, 111]
            rel material:binding = </RobotiqLogo/Blue>
            uniform token physics:approximation = "convexHull"
            point3f[] points = [(0.034292143, 0.035250213, 0), (0.030692143, 0.036750212, 0), (0.021536143, 0.038250215, 0), (0.019436143, 0.038994215, 0), (0.015092144, 0.039450213, 0), (0.006536143, 0.04139421, 0), (0.002192143, 0.041850213, 0), (-0.005463857, 0.043650214, 0), (-0.009963857, 0.044250216, 0), (-0.020607857, 0.046494212, 0), (-0.024063857, 0.046494212, 0), (-0.026763858, 0.045894213, 0), (-0.028863858, 0.044550214, 0), (-0.030807858, 0.042150214, 0), (-0.03200786, 0.039594214, 0), (-0.032607857, 0.037050214, 0), (-0.032763857, 0.031650215, 0), (-0.03216386, 0.028650213, 0), (-0.03200786, 0.026250215, 0), (-0.031107858, 0.022350214, 0), (-0.030663857, 0.018594215, 0), (-0.030063858, 0.016794214, 0), (-0.029463857, 0.011394215, 0), (-0.027663857, 0.0025502143, 0), (-0.027363857, -0.0012057858, 0), (-0.025263857, -0.011549786, 0), (-0.024507858, -0.017705785, 0), (-0.022863857, -0.025205785, 0), (-0.022407858, -0.029705785, 0), (-0.020307858, -0.040049788, 0), (-0.020163856, -0.042605788, 0), (-0.018963858, -0.049205784, 0), (-0.017607857, -0.053849787, 0), (-0.015663859, -0.055505782, 0), (-0.012807857, -0.056705788, 0), (-0.007263857, -0.056705788, 0), (0.0020361429, -0.054305784, 0), (0.0053361426, -0.053849787, 0), (0.011792144, -0.052049786, 0), (0.019736143, -0.05054979, 0), (0.022292143, -0.049505785, 0), (0.024536144, -0.047705784, 0), (0.026336145, -0.045605786, 0), (0.027392143, -0.043805785, 0), (0.029636145, -0.037649784, 0), (0.030692143, -0.031049784, 0), (0.031136144, -0.029705785, 0), (0.032936145, -0.016805787, 0), (0.03473614, -0.0069057858, 0), (0.035192143, -0.0019497857, 0), (0.03713614, 0.008550215, 0), (0.037592143, 0.013950214, 0), (0.039536145, 0.024750214, 0), (0.039536145, 0.028794214, 0), (0.03863614, 0.031050216, 0), (0.036236145, 0.03405021, 0), (0.034292143, 0.035250213, 0.0375), (0.030692143, 0.036750212, 0.0375), (0.021536143, 0.038250215, 0.0375), (0.019436143, 0.038994215, 0.0375), (0.015092144, 0.039450213, 0.0375), (0.006536143, 0.04139421, 0.0375), (0.002192143, 0.041850213, 0.0375), (-0.005463857, 0.043650214, 0.0375), (-0.009963857, 0.044250216, 0.0375), (-0.020607857, 0.046494212, 0.0375), (-0.024063857, 0.046494212, 0.0375), (-0.026763858, 0.045894213, 0.0375), (-0.028863858, 0.044550214, 0.0375), (-0.030807858, 0.042150214, 0.0375), (-0.03200786, 0.039594214, 0.0375), (-0.032607857, 0.037050214, 0.0375), (-0.032763857, 0.031650215, 0.0375), (-0.03216386, 0.028650213, 0.0375), (-0.03200786, 0.026250215, 0.0375), (-0.031107858, 0.022350214, 0.0375), (-0.030663857, 0.018594215, 0.0375), (-0.030063858, 0.016794214, 0.0375), (-0.029463857, 0.011394215, 0.0375), (-0.027663857, 0.0025502143, 0.0375), (-0.027363857, -0.0012057858, 0.0375), (-0.025263857, -0.011549786, 0.0375), (-0.024507858, -0.017705785, 0.0375), (-0.022863857, -0.025205785, 0.0375), (-0.022407858, -0.029705785, 0.0375), (-0.020307858, -0.040049788, 0.0375), (-0.020163856, -0.042605788, 0.0375), (-0.018963858, -0.049205784, 0.0375), (-0.017607857, -0.053849787, 0.0375), (-0.015663859, -0.055505782, 0.0375), (-0.012807857, -0.056705788, 0.0375), (-0.007263857, -0.056705788, 0.0375), (0.0020361429, -0.054305784, 0.0375), (0.0053361426, -0.053849787, 0.0375), (0.011792144, -0.052049786, 0.0375), (0.019736143, -0.05054979, 0.0375), (0.022292143, -0.049505785, 0.0375), (0.024536144, -0.047705784, 0.0375), (0.026336145, -0.045605786, 0.0375), (0.027392143, -0.043805785, 0.0375), (0.029636145, -0.037649784, 0.0375), (0.030692143, -0.031049784, 0.0375), (0.031136144, -0.029705785, 0.0375), (0.032936145, -0.016805787, 0.0375), (0.03473614, -0.0069057858, 0.0375), (0.035192143, -0.0019497857, 0.0375), (0.03713614, 0.008550215, 0.0375), (0.037592143, 0.013950214, 0.0375), (0.039536145, 0.024750214, 0.0375), (0.039536145, 0.028794214, 0.0375), (0.03863614, 0.031050216, 0.0375), (0.036236145, 0.03405021, 0.0375)]
            uniform token subdivisionScheme = "none"
        }
    }
}

